<?xml version="1.0" encoding="UTF-8" standalone="no"?>
<svg xmlns="http://www.w3.org/2000/svg" width="1000" height="800" viewBox="0 0 1000 800">
  <defs>
    <linearGradient id="bg-gradient" x1="0%" y1="0%" x2="100%" y2="100%">
      <stop offset="0%" style="stop-color:#051937;stop-opacity:1" />
      <stop offset="100%" style="stop-color:#0b1021;stop-opacity:1" />
    </linearGradient>
    <pattern id="grid-pattern" width="40" height="40" patternUnits="userSpaceOnUse">
      <path d="M 40 0 L 0 0 0 40" fill="none" stroke="#ffffff" stroke-width="0.5" stroke-opacity="0.05"/>
    </pattern>
  </defs>
  
  <!-- Background with gradient -->
  <rect width="100%" height="100%" fill="url(#bg-gradient)" />
  
  <!-- Grid pattern overlay -->
  <rect width="100%" height="100%" fill="url(#grid-pattern)" />
  
  <!-- Random dots -->
  <g fill="#ffffff" opacity="0.1">
    <circle cx="100" cy="120" r="1.5" />
    <circle cx="350" cy="90" r="1.5" />
    <circle cx="580" cy="210" r="1.5" />
    <circle cx="800" cy="150" r="1.5" />
    <circle cx="150" cy="320" r="1.5" />
    <circle cx="450" cy="350" r="1.5" />
    <circle cx="750" cy="380" r="1.5" />
    <circle cx="250" cy="500" r="1.5" />
    <circle cx="550" cy="480" r="1.5" />
    <circle cx="850" cy="520" r="1.5" />
    <circle cx="120" cy="620" r="1.5" />
    <circle cx="380" cy="650" r="1.5" />
    <circle cx="680" cy="680" r="1.5" />
    <circle cx="900" cy="700" r="1.5" />
    <circle cx="300" cy="720" r="1.5" />
    <circle cx="600" cy="750" r="1.5" />
  </g>
  
  <!-- Subtle connection lines between some dots -->
  <g stroke="#ffffff" stroke-width="0.5" opacity="0.05">
    <line x1="100" y1="120" x2="350" y2="90" />
    <line x1="350" y1="90" x2="580" y2="210" />
    <line x1="580" y1="210" x2="800" y2="150" />
    <line x1="150" y1="320" x2="450" y2="350" />
    <line x1="450" y1="350" x2="750" y2="380" />
    <line x1="250" y1="500" x2="550" y2="480" />
    <line x1="550" y1="480" x2="850" y2="520" />
    <line x1="120" y1="620" x2="380" y2="650" />
    <line x1="380" y1="650" x2="680" y2="680" />
    <line x1="680" y1="680" x2="900" y2="700" />
    <line x1="300" y1="720" x2="600" y2="750" />
  </g>
</svg>